<svg width="120" height="120" viewBox="0 0 120 120" fill="none" xmlns="http://www.w3.org/2000/svg">
<g clip-path="url(#clip0_75_4384)">
<path d="M98.4969 58.5089C98.2705 57.0724 96.8924 56.107 95.4653 56.3744C90.1946 57.078 84.9121 57.349 79.6217 57.3569C90.3146 48.2379 94.4436 33.0968 94.1392 19.3146C94.085 14.104 93.5394 8.9257 92.597 3.82335C92.2302 1.62515 89.462 0.537885 87.7093 1.95374C85.8139 3.33046 83.6715 4.25413 81.3657 4.73648C74.5916 6.11976 67.4853 3.94663 60.9329 1.98234C55.1802 0.367963 52.2402 7.50023 45.5551 8.20476C38.9047 9.11296 32.5067 5.45624 26.0199 3.63632C22.6365 2.6039 19.9508 6.60281 22.2221 9.35109C23.5257 10.9055 24.7182 12.5616 25.7966 14.2985C29.1121 19.5696 31.3438 25.4149 32.7603 31.5239C34.5294 39.06 35.0188 46.9959 34.5617 54.7603C31.3475 54.6506 28.1347 54.6112 24.9242 54.6844C22.8559 54.686 21.2085 56.5085 21.4194 58.5675C21.6083 60.5142 23.3399 61.9392 25.2866 61.7501C31.0236 61.1932 36.8361 61.0109 42.6749 61.0144C57.4152 61.1027 72.1916 61.9453 86.9457 61.6369C89.9371 61.5865 92.9207 61.5094 95.9178 61.5016C97.4989 61.5307 98.7615 60.0708 98.4969 58.5089ZM59.004 7.55601L58.9478 7.5989C58.8496 7.62117 58.9562 7.55601 59.004 7.55601ZM38.8993 54.949C41.5719 41.0212 40.0466 26.1061 33.4403 13.4505C42.6449 16.823 52.3567 14.4719 59.0441 7.54757C68.5532 9.61945 79.3405 12.5803 88.3904 7.23117C91.6253 24.825 89.5925 47.0639 72.9533 57.2391C69.208 57.1071 65.4599 56.8779 61.7101 56.6072C67.0909 50.8938 71.9837 43.6008 69.8893 35.7464C67.1488 31.2227 63.9116 38.1729 63.2863 40.733C62.4882 43.1161 62.6572 45.7371 61.8266 48.12C60.898 50.5144 59.4831 52.7388 57.8818 54.739C57.4668 55.251 57.0289 55.7442 56.5696 56.2169C50.6795 55.7529 44.7875 55.2569 38.8993 54.949Z" fill="white"/>
<path d="M116.812 82.0601C117.298 82.048 117.77 81.8961 118.172 81.6225C119.332 81.0126 120.168 79.7695 119.971 77.9998C117.028 65.119 124.056 42.2294 106.964 37.8197C105.01 37.4255 104.221 40.1599 106.08 40.8691C106.867 41.1438 107.649 41.4431 108.332 41.8601C117.415 47.2378 111.88 66.4535 112.751 77.2694C77.807 80.314 42.1047 77.3325 7.06561 76.7498C7.31311 69.1441 7.95248 61.4986 7.65225 54.0902C6.78647 45.6384 8.49014 39.0511 18.1965 38.4555C20.6699 38.1237 20.5321 34.5703 17.9954 34.4698C-0.186895 33.9926 1.57467 49.3352 0.87342 62.5903C-0.848534 95.7553 -4.22424 120.503 38.1892 117.813C46.7915 117.669 55.4476 117.166 63.9972 117.427C81.4731 115.673 114.583 127.418 118.733 102.394C118.815 99.743 115.034 99.498 114.752 102.115C114.49 112.598 102.426 114.322 94.0621 114.266C72.6601 112.771 51.9742 112.653 29.8098 112.232C22.686 111.559 13.9452 110.411 10.2405 103.681C7.85264 97.2717 7.0942 90.5573 6.98709 83.741C10.813 83.6313 15.6843 83.5319 19.1322 83.4804C50.0901 83.2401 85.6363 83.2594 116.812 82.0601Z" fill="white"/>
</g>
<defs>
<clipPath id="clip0_75_4384">
<rect width="120" height="120" fill="white"/>
</clipPath>
</defs>
</svg>
