<svg width="32" height="32" viewBox="0 0 32 32" fill="none" xmlns="http://www.w3.org/2000/svg">
<path fill-rule="evenodd" clip-rule="evenodd" d="M12.3481 17.403C13.1229 16.6283 13.1229 15.372 12.3481 14.5972L6.45799 8.70709C5.83692 8.08602 5.83692 7.07906 6.458 6.458C7.07906 5.83692 8.08602 5.83692 8.7071 6.458L14.5972 12.3481C15.3719 13.1229 16.6283 13.1229 17.403 12.3481L23.2931 6.45799C23.9142 5.83692 24.9212 5.83692 25.5422 6.45799C26.1633 7.07906 26.1633 8.08602 25.5422 8.7071L19.6522 14.5972C18.8773 15.372 18.8773 16.6283 19.6522 17.403L25.5422 23.2931C26.1633 23.9142 26.1633 24.9212 25.5422 25.5422C24.9212 26.1633 23.9142 26.1633 23.2931 25.5422L17.403 19.6522C16.6283 18.8773 15.3719 18.8773 14.5972 19.6522L8.70709 25.5422C8.08602 26.1633 7.07906 26.1633 6.45799 25.5422C5.83692 24.9212 5.83692 23.9142 6.458 23.2931L12.3481 17.403Z" fill="white"/>
</svg>
