<svg width="43" height="44" viewBox="0 0 43 44" fill="none" xmlns="http://www.w3.org/2000/svg">
<path fill-rule="evenodd" clip-rule="evenodd" d="M4.49719 19.8634C3.79179 20.0686 3.08655 20.4791 2.48194 20.8896C1.37352 21.7107 0.466691 22.8395 0.265108 23.9685C0.164316 24.4816 0.668127 24.7894 0.567481 25.3026C0.466689 26.2263 -0.339504 27.2525 0.164309 28.1761C0.466684 28.6892 1.07129 29.0998 1.17194 29.5103C1.27273 30.126 0.869709 30.7417 1.17194 31.0496C1.6759 31.6653 1.97813 32.3838 2.38116 33.1021C2.58274 33.5126 3.79195 32.8969 3.79195 33.3074C3.79195 33.6152 3.08655 34.4363 3.18734 34.8468C3.28799 35.2573 4.29576 35.2573 4.79958 35.7704C5.10181 36.0782 4.90022 36.8992 5.20259 37.4124C5.60561 38.2334 6.21022 37.5151 7.01627 37.9255C7.41943 38.1308 7.11706 38.6439 7.52008 39.0544C8.12469 39.5676 9.73691 39.7727 10.3415 39.6702C10.9461 39.5676 11.5507 39.465 12.1553 39.157C12.5584 40.1833 13.163 41.1069 13.969 41.928C14.3722 42.3385 15.3798 41.4148 16.4882 41.5174C17.5965 41.62 16.3874 43.0568 18.3019 43.2621C18.8057 43.3647 19.5111 42.2359 20.2165 42.2359C20.821 42.2359 21.5264 43.3647 21.9294 43.3647C22.8364 43.1595 22.937 42.4411 23.9446 42.0305C24.9524 41.62 25.7584 43.2621 26.6653 43.0568C27.1691 42.9542 27.2699 41.62 28.0761 41.0043C28.8821 40.2859 30.3939 41.1069 30.7961 40.7991C31.0982 40.4912 30.8978 39.5676 31.3001 39.157C31.7039 38.7465 32.1061 40.1833 32.308 39.8755C32.9122 39.157 33.8199 38.1308 34.122 37.1046C34.6259 35.5651 34.3239 33.9231 33.8199 32.7942C34.6259 32.8969 36.6403 33.2047 37.4464 32.9995C38.6562 32.6916 38.4543 32.3838 39.0599 31.8707C39.362 31.6653 38.9582 31.0496 39.2603 30.6391C39.5624 30.2286 40.4701 30.0234 40.5703 29.7155C40.7722 29.4075 40.2683 28.997 40.672 28.3813C40.9741 27.9708 41.2762 27.4577 41.2762 27.1497C41.478 26.3288 40.4701 25.9183 40.672 25.0973C40.7722 24.2762 42.1824 23.3526 42.1824 22.5317C42.1824 21.9158 41.982 21.3001 42.1824 20.787C42.3843 20.3765 42.9885 20.1713 42.9885 19.6582C43.0901 19.2477 42.486 18.9397 42.486 18.4266C42.486 18.1187 42.8883 17.6056 42.8883 17.2977C42.8883 16.5794 42.0822 16.1688 41.6785 15.5531C41.3764 15.04 42.1824 14.6295 41.6785 14.1164C40.8724 13.3979 38.858 12.5769 37.2459 12.2691C37.548 11.3455 37.548 10.3192 37.3462 9.49818C37.246 9.19025 36.5401 9.08765 36.3382 8.57454C36.1378 8.06142 36.5401 7.24038 36.1378 6.93245C35.432 6.31674 35.432 6.93245 34.8278 6.62467C34.5243 6.52207 34.928 5.59844 34.6259 5.18791C34.4241 4.87999 33.9201 4.87999 33.7182 4.6748C33.2143 4.16168 33.3159 3.64842 32.9122 3.34064C32.6101 3.03271 31.7039 3.75116 31.502 3.44323C31.3001 3.1353 31.1999 2.51959 30.8978 2.31441C29.7897 1.69855 29.1841 2.82752 28.4791 2.31441C28.0761 2.00648 28.6805 1.28803 27.9753 0.980247C27.5723 0.774914 26.8669 1.08284 26.4639 1.08284C26.0607 1.08284 25.96 0.877654 25.6577 0.67232C25.3554 0.467132 24.3478 1.18543 24.0454 1.08284C22.534 0.672319 22.534 0.364392 21.0225 1.28803C19.8133 2.00648 18.7049 3.13531 18.1003 4.77739C17.7981 4.36687 17.4958 4.05894 17.1935 3.85375C16.2866 3.03271 13.2638 1.39077 12.0545 1.49336C11.4499 1.59596 10.9461 2.62219 10.4423 2.72478C9.63613 2.93012 9.03167 2.10907 8.32627 2.62219C7.41943 3.23804 7.52007 4.36687 7.41943 4.46946C7.01626 5.4957 6.10942 4.77739 5.80719 5.08518C4.79957 5.70103 5.60561 6.82986 5.20259 7.34297C4.79957 7.95883 3.99338 7.75349 3.69115 8.47194C3.38877 9.19025 4.39641 10.1139 3.99339 10.627C3.69116 11.0375 3.08655 10.1139 2.48194 10.627C1.87734 11.0375 2.88497 11.9612 2.68353 12.4743C2.48194 12.9874 1.17194 13.911 1.17194 14.5269C1.6759 16.4768 2.68352 18.5292 4.49719 19.8634Z" fill="#EF4438"/>
<path fill-rule="evenodd" clip-rule="evenodd" d="M20.9204 22.3266C16.1845 18.2216 8.62719 18.5294 4.59668 19.8636C8.12337 22.4293 15.5799 25.4054 20.9204 22.3266C15.9831 25.7133 10.1388 33.5128 12.2548 39.2598C12.9601 38.952 13.7663 38.5415 14.3709 37.9258C17.696 35.0521 21.2228 28.792 20.9204 22.3266C24.7495 26.9447 29.7882 32.0761 34.0203 32.9997C32.2064 28.8946 28.2762 23.8661 20.9204 22.3266C26.7648 20.3767 30.0903 13.0903 34.3224 12.2693C35.5307 12.0641 36.6403 12.0641 37.6468 12.3719C37.3447 13.3981 36.8407 14.4245 36.1364 15.3481C33.4147 18.8373 30.2922 23.3529 20.9204 22.3266C20.3158 16.4769 21.525 9.29318 19.1068 5.59863C18.9052 5.2907 18.7036 5.08552 18.5022 4.77759C18.4014 5.08552 18.3006 5.3933 18.1998 5.70122C16.8899 9.90889 16.6883 17.8111 20.9204 22.3266Z" fill="#CD1543"/>
<path fill-rule="evenodd" clip-rule="evenodd" d="M20.7192 27.8686C20.7192 28.1765 20.6184 28.3817 20.6184 28.6896C20.7192 28.3817 20.7192 28.1765 20.7192 27.8686ZM20.5176 29.921C20.5176 30.0238 20.5176 30.0238 20.5176 30.1264C20.7192 30.2289 20.82 30.3315 20.82 30.5369C20.9206 30.5369 20.9206 30.5369 21.0214 30.6395C21.0214 30.5369 20.9206 30.4341 20.9206 30.3315C20.3161 29.7158 21.1222 28.3817 21.223 27.2528C21.223 26.9449 21.3238 26.7397 21.4244 26.5344C21.5252 26.637 21.5252 26.8423 21.626 27.0475C21.626 27.1501 21.626 27.1501 21.626 27.2528H21.7268C22.1298 27.1501 22.4322 27.5606 22.5328 27.9712C22.5328 28.0737 22.5328 28.3817 22.5328 28.5869L22.8352 29.2027C22.936 29.1001 22.936 29.1001 23.0366 29.1001C22.8352 28.4843 22.6336 27.766 22.5328 27.1501C22.4322 26.8423 22.4322 26.637 22.5328 26.4318C22.6336 26.5344 22.7344 26.637 22.8352 26.8423C23.1374 27.2528 23.339 27.766 23.6413 28.2791C23.6413 28.1765 23.742 28.1765 23.8428 28.0737C23.6413 27.5606 23.4398 27.0475 23.2382 26.637C23.1374 26.4318 23.1374 26.3292 23.1374 26.1239C23.2382 26.2265 23.339 26.3292 23.5406 26.4318C23.6413 26.5344 23.8428 26.7397 23.9436 26.9449C23.9436 26.8423 24.0444 26.7397 24.1451 26.7397C24.0444 26.637 24.0444 26.5344 23.9436 26.4318C23.8428 26.3292 23.8428 26.2265 23.8428 26.1239H23.9436C24.1451 26.2265 24.3467 26.4318 24.5482 26.637C24.8505 26.637 25.052 26.8423 25.2535 27.0475C25.3543 27.1501 25.3543 27.3554 25.4551 27.5606L25.7573 27.9712C25.8581 27.9712 25.8581 27.8686 25.9589 27.8686C25.7573 27.5606 25.4551 27.2528 25.2535 26.9449C25.7573 27.5606 26.4627 28.0737 27.7727 27.5606H27.6719C26.6643 27.766 26.1605 27.5606 25.8581 27.1501C25.5559 26.9449 25.1527 26.637 25.052 26.5344C24.8505 26.3292 24.7497 25.9187 24.8505 25.6108C24.8505 25.6108 24.8505 25.5082 24.7497 25.5082C24.6489 25.4056 24.6489 25.4056 24.5482 25.3028L24.7497 25.4056L24.8505 25.5082C25.1527 25.2002 25.6565 25.5082 25.8581 25.8161C25.9589 25.9187 26.0597 26.1239 26.1605 26.3292C26.3619 26.4318 26.5635 26.5344 26.6643 26.637C26.6643 26.637 26.6643 26.5344 26.7649 26.5344L26.8657 26.4318C26.3619 26.0213 25.8581 25.7133 25.3543 25.3028L25.5559 25.4056C25.5559 25.4056 25.4551 25.4056 25.4551 25.3028C25.2535 25.0976 24.9513 24.7897 25.052 24.4819C24.9513 24.3793 24.9513 24.3793 24.9513 24.3793C25.052 24.3793 25.052 24.3793 25.1527 24.3793C25.2535 24.174 25.4551 24.174 25.6565 24.174C25.4551 24.0714 25.3543 23.9688 25.2535 23.9688C25.4551 23.9688 25.6565 23.9688 25.8581 23.9688C26.0597 23.9688 26.3619 24.0714 26.5635 24.0714V23.9688C26.5635 23.8661 26.5635 23.8661 26.6643 23.7635C26.3619 23.6609 26.1605 23.6609 25.9589 23.5583C25.8581 23.5583 25.6566 23.4557 25.5559 23.4557C25.6566 23.4557 25.7573 23.4557 25.8581 23.4557C26.2611 23.4557 26.6643 23.4557 26.8657 23.353C26.7649 23.2504 26.7649 23.1478 26.7649 23.0452C26.5635 23.0452 26.2611 22.9424 25.8581 22.9424C25.7573 22.9424 25.5559 22.9424 25.4551 22.8398C25.5559 22.8398 25.7573 22.7372 25.9589 22.7372C26.2611 22.6347 26.6643 22.6347 26.9665 22.6347C27.1681 22.5321 27.3695 22.5321 27.5711 22.5321C27.6719 22.5321 27.6719 22.5321 27.7727 22.6347H28.3772C28.3772 22.5321 28.2765 22.4293 28.2765 22.4293C27.8733 22.4293 27.5711 22.4293 27.1681 22.4293C26.8657 22.6347 26.2611 22.8398 26.0597 22.8398C25.7573 22.8398 25.2535 22.6347 25.2535 22.2241C25.2535 22.1215 25.2535 22.0189 25.3543 21.9162C25.2535 21.9162 25.2535 21.9162 25.1527 21.9162C25.2535 21.9162 25.3543 21.8136 25.4551 21.711C25.5559 21.6084 25.6565 21.6084 25.8581 21.5057C26.0597 21.4031 26.2611 21.3005 26.4627 21.1979C26.4627 21.0953 26.3619 21.0953 26.3619 20.9926V20.89C26.0597 20.9926 25.8581 20.9926 25.5559 21.0953C25.3543 21.0953 25.2535 21.1979 25.052 21.1979C25.1527 21.0953 25.2535 21.0953 25.3543 20.9926C26.2611 20.3769 26.5635 20.3769 27.2687 19.8637C27.2687 19.8637 27.2687 19.7611 27.1681 19.7611C26.8657 19.8637 26.5635 20.0689 26.0597 20.2743C26.0597 20.2743 26.0597 20.2743 25.9589 20.3769C25.7573 20.4795 25.5559 20.582 25.3543 20.582C25.2535 20.582 25.1527 20.6848 25.052 20.6848C24.7497 20.7874 24.5482 20.89 24.3467 20.89C24.4474 20.7874 24.5482 20.582 24.8505 20.3769C24.7497 20.2743 24.7497 20.0689 24.8505 19.8637H24.7497C24.4474 20.0689 24.1451 20.1717 24.0444 20.1717C24.1451 20.0689 24.1451 19.9663 24.2459 19.9663C24.5482 19.6586 24.8505 19.3506 25.1527 19.1453C25.052 19.1453 24.8505 19.1453 24.7497 19.1453C24.4474 19.3506 24.1451 19.6584 23.742 19.8637C23.8428 19.6584 23.9436 19.5558 24.1451 19.248C24.2459 19.1453 24.3466 18.9401 24.4474 18.8375C24.4474 18.7349 24.4474 18.5296 24.4474 18.427C24.2459 18.6322 24.0443 18.8375 23.8428 19.0427L23.742 19.1453C23.9436 18.7349 24.1451 18.3244 24.4474 17.9139C24.3466 17.9139 24.2459 17.9139 24.1451 17.8113C23.9436 18.1191 23.6413 18.5296 23.339 18.8375C23.1374 19.0427 23.0366 19.248 22.936 19.3506C22.936 19.1453 23.0366 18.9401 23.1374 18.5296L23.339 18.1191C23.2382 18.2217 23.0366 18.2217 22.936 18.2217C22.8352 18.427 22.7344 18.5296 22.6336 18.6322V18.5296C22.6336 18.3244 22.7344 18.2217 22.7344 18.1191C22.6336 18.0165 22.5328 18.0165 22.5328 17.9139C22.4322 18.0165 22.4322 18.1191 22.3314 18.2217C22.3314 18.3244 22.2306 18.3244 22.2306 18.427C22.1298 18.6322 22.029 18.8375 21.9284 18.9401C21.9284 18.8375 21.8276 18.6322 21.8276 18.427C21.7268 18.427 21.7268 18.427 21.626 18.427C21.5252 18.427 21.4244 18.3244 21.4244 18.2217C21.4244 18.3244 21.3238 18.3244 21.3238 18.427V18.3244C21.3238 18.2217 21.3238 18.1191 21.3238 18.0165C21.3238 17.9139 21.3238 17.8113 21.3238 17.7085C21.3238 17.1954 21.3238 16.7849 21.3238 16.2718C21.223 16.2718 21.223 16.3745 21.1222 16.3745C21.1222 16.9902 21.0214 17.7085 20.9206 18.3244C20.9206 18.6322 20.82 18.8375 20.82 18.9401C20.7192 18.7349 20.6184 18.427 20.5176 18.0165C20.3161 17.0928 20.3161 16.1692 20.3161 15.3481C20.2154 15.3481 20.2154 15.3481 20.1146 15.3481C20.1146 16.1692 20.2154 17.1954 20.1146 18.1191C20.1146 18.2217 20.1146 18.3244 20.1146 18.427C19.913 17.7085 19.7115 16.7849 19.51 16.0666C19.4092 16.0666 19.4092 16.0666 19.3084 16.0666L19.4092 16.6823C19.6107 16.9902 19.7115 17.298 19.7115 17.4008C19.7115 17.6059 19.7115 17.9139 19.6107 18.1191C19.6107 18.3244 19.6107 18.427 19.6107 18.6322C19.6107 18.8375 19.6107 18.9401 19.6107 19.0427C19.51 18.9401 19.3084 18.7349 19.2077 18.3244C19.0061 18.3244 18.9053 18.3244 18.8046 18.2217V18.427C18.8046 18.6322 18.9053 18.8375 18.9053 19.0427L18.8046 18.9401L18.7039 18.8375C18.7039 18.9401 18.6031 19.0427 18.5023 19.0427C18.5023 19.0427 18.4015 19.0427 18.4015 19.1453L18.5023 19.248L18.6031 19.4532C18.5023 19.3506 18.3007 19.248 18.2001 19.1453C17.9985 19.0427 17.7969 18.9401 17.6963 18.7349C17.6963 18.6322 17.5955 18.5296 17.4947 18.3244C17.0917 17.8113 16.6885 17.1954 16.3863 16.6823L16.2855 16.7849C16.7893 17.5033 17.2931 18.427 17.6963 19.248C17.7969 19.4532 17.8977 19.6586 17.8977 19.7611C17.4947 19.5558 16.9909 19.0427 16.5879 18.7349C16.4871 18.6322 16.3863 18.5296 16.3863 18.427C16.2855 18.427 16.2855 18.427 16.1847 18.427C16.2855 18.5296 16.3863 18.7349 16.4871 18.8375C16.7893 19.248 17.1923 19.6586 17.5955 19.9663C17.4947 19.8637 17.2931 19.7611 17.0917 19.6584C16.4871 19.248 15.9833 18.8375 15.4794 18.3244C15.4794 18.427 15.3787 18.427 15.3787 18.5296C15.8825 19.0427 16.3863 19.5558 16.7893 20.0689C16.9909 20.2743 17.0917 20.4795 17.1923 20.582C17.0917 20.582 17.0917 20.4795 16.9909 20.4795C16.6885 20.2743 16.1847 20.0689 15.7817 19.8637C15.7817 19.9663 15.6809 19.9663 15.5801 20.0689L15.9833 20.2743C16.0841 20.2743 16.2855 20.3769 16.2855 20.3769C16.3863 20.4795 16.4871 20.582 16.5879 20.6848L16.6885 20.7874C16.7893 20.89 16.7893 20.89 16.8901 20.9926C16.7893 20.9926 16.7893 20.9926 16.6885 20.9926C16.6885 21.0953 16.6885 21.3005 16.6885 21.4031C16.4871 21.711 15.9833 21.711 15.6809 21.5057C15.7817 21.6084 15.7817 21.711 15.7817 21.8136C15.8825 21.8136 15.9833 21.9162 16.0841 21.9162C16.2855 22.0189 16.3863 22.1215 16.5879 22.1215C16.3863 22.2241 16.0841 22.2241 15.5801 22.1215C15.4794 22.2241 15.3786 22.2241 15.1771 22.2241H15.2779C15.4794 22.2241 15.5802 22.2241 15.6809 22.3267C15.7817 22.3267 15.9833 22.4293 16.0841 22.5321C16.1847 22.6347 16.3863 22.6347 16.4871 22.7372C16.3863 22.7372 16.3863 22.7372 16.2855 22.7372C16.3863 22.8398 16.3863 23.0452 16.3863 23.1478C16.2855 23.4557 15.8825 23.5583 15.4794 23.5583L15.5801 23.6609C15.9833 23.6609 16.2855 23.6609 16.4871 23.7635C16.2855 23.8661 16.0839 23.8661 15.7817 23.9688H15.6809C15.6809 24.174 15.5801 24.3793 15.3787 24.4819C15.5801 24.4819 15.6809 24.4819 15.8825 24.3793H16.0841C15.8825 24.4819 15.7817 24.5845 15.5801 24.6871C15.6809 24.7897 15.7817 24.8925 15.7817 24.995C15.9833 24.8925 16.1847 24.8925 16.3863 24.7897C16.4871 24.7897 16.5879 24.7897 16.6885 24.7897C16.5879 24.8925 16.3863 24.995 16.1847 25.0976C15.9833 25.2002 15.7817 25.303 15.6809 25.4056C15.5802 25.6108 15.2779 25.7134 15.0763 25.7134H14.9756L14.6733 25.9187C14.7741 25.9187 14.774 26.0213 14.774 26.1239L14.9756 26.0213C15.0763 25.9187 15.1771 25.9187 15.3787 25.9187C15.6809 25.8161 15.9833 25.7134 16.2855 25.6108C16.1847 25.7134 16.084 25.8161 15.8825 25.9187L15.7817 26.0213C15.8825 26.0213 15.9833 26.1239 15.9833 26.2265C16.0841 26.1239 16.2855 26.0213 16.3863 26.0213C16.9909 25.7134 17.2931 25.6108 17.3939 25.8161C17.2931 25.9187 17.1923 26.1239 16.9909 26.3292C16.4871 26.9449 15.7817 27.5606 15.0763 27.8686C15.0763 27.9712 15.0763 28.0737 15.0763 28.0737C15.5801 27.8686 16.1847 27.458 16.7893 27.0475C16.4871 27.458 16.2855 27.6634 16.0841 27.8686C16.1847 27.8686 16.1847 27.9712 16.2855 27.9712C16.2855 27.9712 16.2855 27.9712 16.2855 28.0737L16.9909 27.458L17.0917 27.3554C17.3939 27.1501 17.5955 26.9449 17.8977 26.637C17.7969 26.8423 17.6961 27.0475 17.5955 27.2528C17.5955 27.2528 17.5955 27.2528 17.6963 27.2528C17.8977 27.3554 17.9985 27.6634 17.9985 27.8686C18.0993 27.5606 18.3007 27.3554 18.6031 27.3554C18.8046 27.1501 18.9053 26.9449 19.1069 26.9449C19.1069 27.0475 19.0061 27.2528 18.9053 27.458C19.1069 27.5606 19.1069 27.8686 19.1069 28.0737L19.3084 27.766C19.3084 28.3817 19.1069 29.1001 19.0061 29.8184C19.1069 29.921 19.1069 30.0238 19.1069 30.1264V30.0238C19.0061 29.6132 19.1069 29.2027 19.1069 28.9974C19.1069 28.7922 19.3084 28.587 19.4092 28.4843C19.51 28.1765 19.6107 27.8686 19.7115 27.6634C19.8123 27.3554 20.0138 27.1501 20.1146 27.1501C20.1146 27.2528 20.2153 27.3554 20.2153 27.5606C20.2153 27.8686 20.2153 28.1765 20.2153 28.5869C20.4168 28.7922 20.4168 29.1001 20.3161 29.4079C20.3161 29.5105 20.2154 29.6132 20.1146 29.8184C20.1146 30.1264 20.1146 30.3315 20.1146 30.5369H20.2153H20.3161L20.5176 29.921ZM24.7497 29.1001C24.7497 28.8948 24.7497 28.587 24.6489 28.4843V28.3817C24.7497 28.3817 24.7497 28.4843 24.7497 28.4843C24.8505 28.6896 24.8505 28.8948 24.7497 29.1001ZM26.0597 25.4056C26.2611 25.4056 26.4627 25.4056 26.5635 25.3028C26.7649 25.4056 27.0673 25.5082 27.2687 25.5082C27.2687 25.6108 27.2687 25.7134 27.3695 25.7134C26.9665 25.7134 26.5635 25.6108 26.0597 25.4056ZM29.0826 25.8161L29.1828 25.7134C29.1828 25.7134 29.0826 25.7134 29.0826 25.8161ZM26.2611 24.4819C26.1605 24.3793 26.0597 24.2766 25.9589 24.174C27.0673 24.6871 28.2765 24.995 28.881 25.3028C28.7803 25.3028 28.6795 25.303 28.4779 25.2002C28.3772 25.2002 28.3772 25.0976 28.3772 25.0976C28.1757 24.995 27.9741 24.8925 27.7727 24.995C27.3695 24.8925 26.8657 24.6871 26.2611 24.4819ZM27.1681 21.4031C27.0673 21.3005 26.9665 21.3005 26.8657 21.1979C27.3695 21.0953 27.8733 20.9926 28.2765 20.89C28.2765 20.9926 28.3772 20.9926 28.3772 21.0953C27.9741 21.1979 27.5711 21.3005 27.1681 21.4031ZM28.1757 19.9663C28.0749 19.8637 28.0749 19.8637 27.9741 19.8637C28.4779 19.6584 28.9818 19.5558 29.3846 19.4532C29.0826 19.5558 28.6795 19.7611 28.1757 19.9663ZM26.6643 18.6322C26.6643 18.5296 26.6643 18.5296 26.6643 18.427C26.7649 18.3244 26.9665 18.3244 27.0673 18.2217C27.0673 18.2217 27.0673 18.2217 27.0673 18.3244C27.0673 18.3244 27.0673 18.3244 27.0673 18.427C26.9665 18.5296 26.7649 18.5296 26.6643 18.6322ZM25.7573 17.9139C25.8581 17.8113 25.9589 17.6059 25.9589 17.4008C26.0597 17.298 26.1605 17.1954 26.2611 17.0928C26.3619 17.0928 26.4627 17.0928 26.4627 17.0928C26.2611 17.4008 26.0597 17.7085 25.7573 17.9139ZM25.6565 16.6823C25.5559 16.6823 25.3543 16.7849 25.1527 16.8876C25.3543 16.5797 25.6565 16.3745 25.8581 16.1692C25.7573 16.2718 25.7573 16.3744 25.7573 16.5797L25.6565 16.6823ZM22.029 15.8613C21.9284 15.964 21.8276 15.964 21.8276 16.0666C21.9282 15.8613 21.9284 15.6561 22.029 15.4509L22.1298 15.5535C22.029 15.6561 22.029 15.7587 22.029 15.8613ZM17.8977 16.5797C17.7969 16.4771 17.6961 16.4771 17.5955 16.4771C17.4947 16.1692 17.2931 15.8613 17.1923 15.5535C17.2931 15.5535 17.2931 15.5535 17.3939 15.5535L17.4947 15.8613C17.4947 16.0666 17.5955 16.2718 17.7969 16.4771L17.8977 16.5797ZM14.1694 17.9139C14.0687 17.7085 14.0686 17.6059 14.0686 17.4008V17.298C14.0686 17.5033 14.0686 17.7085 14.0686 17.9139C14.0686 17.9139 14.0687 17.9139 14.1694 17.9139ZM14.8748 19.4532C14.8748 19.5558 14.8748 19.5558 14.8748 19.4532C14.5725 19.3506 14.4718 19.248 14.4718 19.0427C14.5725 19.1453 14.6733 19.1453 14.6733 19.248H14.774C14.774 19.3506 14.8748 19.4532 14.8748 19.4532ZM14.9756 20.4795C14.8748 20.4795 14.5725 20.4795 14.2702 20.582C14.371 20.582 14.5725 20.4795 14.6733 20.3769L14.9756 20.4795ZM14.2702 22.2241C13.9679 22.2241 13.6656 22.1215 13.4642 22.0189C13.3634 22.0189 13.2626 22.0189 13.1618 22.0189C13.061 22.0189 12.9602 21.9162 12.7588 21.8136C12.9602 22.1215 13.2626 22.2241 13.7664 22.3267C13.7664 22.5321 13.8672 22.7372 13.968 22.8398C13.968 22.8398 14.0686 22.8398 14.0686 22.7372C13.8672 22.6347 13.7664 22.5321 13.6656 22.2241C13.8672 22.3267 14.0686 22.3267 14.371 22.3267C14.371 22.4293 14.2702 22.3267 14.2702 22.2241ZM13.968 23.9688H13.7664C13.7664 24.0714 13.8672 24.0714 13.8672 24.174L14.4718 24.0714C14.371 24.0714 14.1694 23.9688 13.968 23.9688ZM13.7664 24.6871H13.6656C13.6656 24.6871 13.5648 24.6871 13.5648 24.7897C13.5648 24.7897 13.6656 24.7897 13.7664 24.6871C13.7664 24.6871 13.6656 24.7897 13.7664 24.6871ZM17.7969 28.1765C17.8977 28.0737 17.9985 27.8686 18.0993 27.8686C18.0993 27.8686 18.0993 27.766 18.2001 27.766C18.2001 27.8686 18.2001 28.0737 18.2001 28.1765C17.7969 28.8948 17.3939 29.6132 16.8901 29.7158L16.9909 29.6132C16.9909 29.6132 17.0917 29.5105 17.0917 29.4079C17.2931 29.2027 17.5955 28.6896 17.7969 28.1765ZM18.3007 28.9974C18.4015 28.9974 18.5023 28.9974 18.6031 28.9974C18.6031 29.1001 18.5023 29.2027 18.5023 29.3053C18.4015 29.4079 18.2001 29.6132 18.2001 29.8184C18.2001 29.5105 18.2001 29.3053 18.3007 28.9974ZM19.0061 30.7421C19.0061 30.6395 19.1069 30.6395 19.1069 30.5369C19.1069 30.6395 19.0061 30.7421 19.0061 30.8447C19.0061 30.8447 19.0061 30.8447 19.0061 30.7421ZM24.2459 26.0213L24.4474 26.3292C24.4474 26.2265 24.3466 26.1239 24.2459 26.0213Z" fill="#363841"/>
<path fill-rule="evenodd" clip-rule="evenodd" d="M18.9065 19.5558C18.8057 19.4532 18.6041 19.3506 18.4027 19.3506C17.9996 19.3506 17.6973 19.5558 17.5965 19.9663C17.395 20.1716 17.1934 20.4794 17.1934 20.8899C16.8912 20.9925 16.6896 21.3005 16.6896 21.711C16.6896 21.9162 16.7904 22.1215 16.8912 22.3267C16.3874 23.0451 16.7904 24.174 17.8988 24.174C17.6973 24.3793 17.5965 24.5845 17.5965 24.8924C17.5965 25.4055 18.1003 25.7135 18.5034 25.9187C19.0073 26.1238 19.5111 25.7135 19.9141 25.9187C20.3171 26.0212 20.5187 26.4318 20.9217 26.5344C21.2241 26.5344 21.4255 26.5344 21.7279 26.3292C22.3324 25.9187 22.1309 25.7135 22.4332 25.5081C22.7355 25.3029 22.937 25.5081 23.4408 25.2002C23.7432 25.0976 23.9446 24.7898 24.0454 24.4819C24.1462 24.0714 23.9446 23.5583 24.0454 23.2503C24.1462 22.9425 24.5492 22.532 24.5492 22.1215C24.5492 21.9162 24.4484 21.6084 24.3478 21.4031C24.1462 21.0953 23.7432 20.9925 23.5416 20.6847C23.3401 20.3768 23.4408 19.8637 23.2394 19.5558C23.1386 19.4532 23.0378 19.248 22.8362 19.1453C22.6347 19.0427 22.4332 19.0427 22.2317 19.0427C22.1309 18.7349 21.8286 18.5295 21.4255 18.5295C21.2241 18.5295 21.0225 18.6321 20.8209 18.7349C20.7201 18.6321 20.6195 18.5295 20.5187 18.5295C20.2163 18.427 19.8133 18.427 19.5111 18.6321C19.3095 18.8375 19.2087 19.3506 18.9065 19.5558Z" fill="#FFD600"/>
<path fill-rule="evenodd" clip-rule="evenodd" d="M21.7282 19.9662C21.9297 19.6582 22.0305 19.4531 22.2321 18.9399V19.0425C22.4335 19.0425 22.6351 19.0425 22.8365 19.1451C21.7281 20.8898 21.6275 21.4029 22.4335 21.0951C22.6351 20.9924 23.2397 20.5819 23.4411 20.2741C23.4411 20.3767 23.4411 20.4793 23.5419 20.5819C23.6427 20.6846 23.8443 20.7872 23.9449 20.8898C23.2397 20.9924 21.7282 21.916 23.2397 22.0186C23.6427 22.0186 24.1465 22.0186 24.5495 22.0186C24.5495 22.3266 24.3481 22.5319 24.1465 22.7371C23.7435 22.6345 22.6351 22.4292 22.6351 22.8397C22.6351 23.045 23.3405 23.5581 24.0457 23.8659C24.0457 23.9687 24.0457 24.1738 24.0457 24.2764C24.0457 24.379 23.9449 24.4818 23.9449 24.5844C23.7435 24.5844 23.5419 24.4818 23.4411 24.3792C23.0381 24.1738 22.6351 23.8659 22.2321 23.6607C22.4335 24.0712 22.6351 24.5844 22.8365 24.9949V25.0975C22.7359 25.0975 22.6351 25.0975 22.5343 25.2001C22.3327 25.3027 22.3327 25.508 22.2321 25.6106C22.2321 25.0975 21.9297 23.5581 21.4259 24.0712C21.1236 24.4818 21.2243 25.9185 21.2243 26.1237C21.1236 26.1237 21.1236 26.1237 21.0228 26.1237C20.7205 26.1237 20.519 25.8159 20.3175 25.7132C20.4182 25.6106 20.519 25.4054 20.519 25.2001C20.6198 24.7895 20.6198 24.1738 20.4182 24.1738C20.0152 24.1738 19.6122 25.2001 19.5114 25.508C19.209 25.6106 18.9068 25.7132 18.6044 25.508C18.6044 25.508 18.5038 25.508 18.5038 25.4054C18.806 25.2001 19.0076 24.9949 19.209 24.7895C19.6122 24.2764 19.612 23.7633 19.612 23.6607C19.5114 23.4555 19.1082 23.7633 18.6044 23.9687C18.403 24.0712 18.2014 24.1738 18.1006 24.1738C17.9998 24.1738 17.8992 24.2764 17.7984 24.2764C17.7984 24.0712 17.8992 23.8659 18.1006 23.6607C17.8992 23.6607 17.5968 23.6607 17.496 23.5581C17.8992 23.5581 18.2014 23.4555 18.5038 23.2502C19.5114 22.6345 18.7052 22.6345 18.1006 22.5319C17.8992 22.5319 17.6976 22.5319 17.496 22.4292C17.3954 22.4292 17.1938 22.4292 16.9922 22.3266C16.9922 22.1214 17.093 21.916 17.1938 21.8134L17.093 21.7109C17.496 21.916 17.7984 22.0186 18.2014 21.916C18.7052 21.916 19.5114 21.916 19.5114 21.7109C19.5114 21.6083 19.0076 21.3003 18.806 21.1977C18.403 20.9924 17.9998 20.6846 17.2946 20.3767C17.2946 20.1715 17.3954 19.9662 17.496 19.761C17.6976 19.8636 18.3022 20.2741 18.806 20.6846C19.3098 20.9924 19.8136 21.3003 19.9144 20.9924C19.9144 20.9924 19.8136 20.6846 19.612 20.2741C19.3098 19.6582 18.9068 18.8373 18.6044 18.8373C18.806 18.8373 19.0076 18.9399 19.1082 19.0425C19.209 18.9399 19.3098 18.8373 19.4106 18.632C19.4106 18.632 19.5114 18.8373 19.5114 18.9399C19.6122 19.2479 19.7128 19.4531 19.8136 19.6582C20.0152 20.0688 20.4182 20.7872 20.519 20.6846C20.7205 20.5819 20.6198 19.9662 20.6198 19.4531C20.6198 18.9399 20.6198 18.3242 20.519 18.1189C20.6198 18.1189 20.7205 18.1189 20.8213 18.2215C20.9221 18.2215 21.0228 18.3242 21.1236 18.4268L21.2243 18.3242C21.3251 18.5294 21.2243 18.8373 21.2243 19.1451C21.2243 19.6582 21.1236 20.6846 21.4259 20.6846C21.2243 20.8898 21.4259 20.2741 21.7282 19.9662Z" fill="#A9A515"/>
<path fill-rule="evenodd" clip-rule="evenodd" d="M20.82 20.3767C20.82 19.8636 20.82 19.1453 20.82 18.7348C20.7192 18.632 20.6184 18.632 20.5176 18.5294C20.4168 18.9399 20.4168 19.5557 20.4168 20.2741C20.4168 20.9924 20.5176 21.6083 20.4168 21.7109C20.3162 21.8134 20.1146 21.4029 19.7116 20.7872C19.4092 20.2741 19.107 19.6584 18.9054 19.2479C18.9054 19.3505 18.8046 19.3505 18.7039 19.4531L18.6031 19.3505C18.8046 19.761 19.107 20.3767 19.4092 20.8898C19.6108 21.3003 20.0138 21.7109 19.913 21.8134C19.8122 21.916 19.4092 21.7109 19.0062 21.4029C18.3008 20.9924 17.4947 20.4793 17.0917 20.2741C17.0917 20.3767 16.9909 20.4793 16.9909 20.4793C17.2931 20.6846 17.797 21.0951 18.5024 21.4029C18.7039 21.5057 18.8046 21.6083 18.9054 21.7109C19.3084 21.916 19.8122 22.0188 19.8122 22.1214C19.8122 22.224 19.4092 22.224 19.3084 22.224C19.107 22.224 18.9054 22.3266 18.7039 22.3266C17.8977 22.3266 17.0917 22.224 16.6885 22.0188C16.6885 22.1214 16.6885 22.224 16.5879 22.3266C17.2931 22.5319 17.8977 22.6345 18.7039 22.6345C19.0062 22.6345 19.8122 22.4293 19.8122 22.5319C19.8122 22.6345 19.3084 22.9424 18.8046 23.2502C18.4016 23.4555 17.8977 23.7633 17.4947 23.8661C17.4947 23.8661 17.4947 24.0712 17.4947 24.2764V24.3792C17.8977 24.1738 18.4016 23.8661 18.9054 23.5581C19.4092 23.2502 20.0138 22.7371 20.1146 22.9424C20.2154 23.045 19.8124 23.6607 19.51 24.1738C19.2078 24.5844 18.9054 25.3028 18.6031 25.8159C18.7039 25.8159 18.9054 25.8159 19.0062 25.8159C19.3084 25.4054 19.51 24.7897 19.7116 24.3792C20.0138 23.9687 20.3162 23.1476 20.4168 23.1476C20.5176 23.1476 20.5176 23.6607 20.5176 24.3792C20.5176 24.9949 20.4168 25.7132 20.4168 26.1237C20.5176 26.1237 20.6184 26.2264 20.7192 26.2264C20.82 25.7132 20.9206 24.9949 20.9206 24.2764C20.9206 23.5581 20.82 22.9424 20.9206 22.9424C21.0214 22.9424 21.223 23.4555 21.626 24.0712C21.7268 24.1738 21.9282 24.687 22.1298 25.2001C22.1298 25.2001 22.1298 25.2001 22.2306 25.0975C22.3314 25.0975 22.3314 24.9949 22.4321 24.9949C22.2306 24.4818 22.029 23.9687 21.9283 23.8661C21.223 22.6345 21.1222 22.6345 22.3314 23.3528C22.8352 23.6607 23.4398 23.9687 23.7421 24.2764V24.1738C23.7421 24.0712 23.7421 24.0712 23.7421 23.9687C23.339 23.7633 22.936 23.4555 22.4321 23.1476C21.223 22.4293 21.223 22.224 22.6336 22.224C23.1375 22.224 23.6413 22.224 24.0443 22.3266C24.0443 22.224 24.1451 22.1214 24.1451 22.1214C23.7421 22.0188 23.1375 22.0188 22.5329 22.0188C21.223 22.0188 21.1222 22.1214 22.029 21.5057C22.1298 21.4029 22.3314 21.3003 22.4321 21.1977C22.8352 20.9924 23.1375 20.7872 23.4398 20.6846C23.339 20.582 23.2383 20.582 23.2383 20.4793C22.936 20.582 22.6336 20.7872 22.3314 20.9924C21.7268 21.4029 21.223 21.8134 21.1222 21.8134C21.0214 21.7109 21.223 21.1977 21.5252 20.582C21.9283 19.9662 22.2306 19.4531 22.4321 19.0425C22.3314 19.0425 22.2306 18.9399 22.1298 18.9399C21.8276 19.2479 21.5252 19.761 21.1222 20.3767C20.7192 20.9924 20.6184 21.5057 20.5176 21.5057C20.82 21.6083 20.82 21.4029 20.82 20.3767Z" fill="#6E3231"/>
<path fill-rule="evenodd" clip-rule="evenodd" d="M18.9063 26.9447C18.6039 26.8421 18.3017 27.1499 18.1001 27.4578C18.1001 27.2526 18.1001 26.9447 17.7979 26.8421C17.3948 26.6368 16.9917 26.9447 16.891 27.2526C16.7902 27.4578 16.5886 28.1763 16.6894 28.484C16.3872 28.3814 15.984 28.5868 15.7826 28.792C15.581 28.9971 15.178 30.0235 15.4802 30.2287C15.7826 30.4339 16.5886 29.8182 16.7902 29.5104C16.9917 29.3051 17.0925 28.8946 16.891 28.5868C17.294 28.5868 17.7979 27.8683 17.8987 27.6631C17.8987 27.6631 17.8986 27.5604 17.9994 27.5604C17.8986 27.9709 17.9993 28.792 18.3017 28.8946C18.7047 28.9972 19.2085 28.0735 19.2085 27.7657C19.4101 27.5604 19.3093 27.0473 18.9063 26.9447ZM18.9063 29.2025C19.3093 29.3051 19.4101 29.8182 19.3093 30.1261C19.2085 30.4339 18.8055 31.3575 18.4025 31.2549C17.9994 31.1524 18.1001 30.1261 18.1001 29.8182C18.2009 29.5103 18.5033 29.0999 18.9063 29.2025ZM20.2161 27.9709C20.6193 28.0735 20.7199 28.5868 20.6193 28.8946C20.5185 29.2025 20.0147 30.1261 19.7123 30.0235C19.3093 29.9208 19.4101 28.8946 19.5109 28.5868C19.5109 28.2788 19.8131 27.8683 20.2161 27.9709ZM20.4177 30.1261C20.0147 30.0235 19.7123 30.5366 19.7123 30.8444C19.7123 31.1524 19.7123 32.1786 20.1155 32.2812C20.5185 32.3839 20.9215 31.3575 20.9215 31.0498C20.9215 30.7418 20.8207 30.2287 20.4177 30.1261ZM21.7276 27.2526C21.3246 27.3552 21.2238 27.8683 21.3245 28.1763C21.4253 28.484 21.8284 29.4077 22.2315 29.4077C22.6346 29.3051 22.6346 28.2788 22.5338 27.9709C22.433 27.5604 22.1307 27.1499 21.7276 27.2526ZM23.3398 29.0999C23.743 29.2025 23.8438 29.7156 23.743 30.0235C23.6422 30.3313 23.2392 31.2549 22.836 31.1524C22.433 31.0498 22.5338 30.0235 22.5338 29.7156C22.6346 29.4077 22.9368 28.9972 23.3398 29.0999ZM21.4253 29.0999C21.8284 29.0999 22.0299 29.5103 22.1307 29.9208C22.1307 30.2287 22.03 31.2549 21.6269 31.3575C21.2238 31.3575 20.9215 30.3313 20.9215 30.0235C20.8207 29.613 21.0223 29.0999 21.4253 29.0999ZM23.8436 27.9709C23.4406 28.0735 23.4406 28.5868 23.5414 28.9972C23.6422 29.3051 24.146 30.2287 24.549 30.1261C24.952 30.0235 24.8514 28.8946 24.7506 28.6894V28.5868C24.952 28.6894 25.0528 28.6894 25.2544 28.6894C25.5566 28.484 25.2544 27.4578 25.0528 27.2526C24.8514 26.9447 24.4482 26.6368 24.146 26.8421C23.8436 27.0473 23.8438 27.5604 24.0452 27.8683C24.0452 27.9709 24.146 27.9709 24.2468 28.0735C24.0452 27.9709 23.9444 27.9709 23.8436 27.9709ZM25.4559 27.9709C25.7582 27.6631 26.262 27.8683 26.4636 28.0735C26.6651 28.2788 27.2697 29.2025 26.9674 29.5104C26.6651 29.8182 25.7582 29.2025 25.5566 28.9972C25.3552 28.792 25.1536 28.2788 25.4559 27.9709ZM24.6498 25.4053C24.952 25.0974 25.4559 25.4053 25.6574 25.7131C25.859 25.9185 26.262 26.9447 25.9597 27.1499C25.6574 27.3552 24.8514 26.7395 24.6498 26.4316C24.4482 26.2262 24.3476 25.7131 24.6498 25.4053ZM26.5643 26.329C26.3628 26.6368 26.6651 27.1499 26.9674 27.2526C27.2697 27.3552 28.1765 27.7657 28.3781 27.3552C28.5795 27.0473 27.7735 26.329 27.5719 26.1236C27.2697 26.021 26.7659 26.0211 26.5643 26.329ZM24.8514 24.0712C24.6498 24.3791 24.8514 24.8922 25.1536 25.0974C25.3552 25.3027 26.3628 25.7131 26.5643 25.4053C26.7659 25.0974 26.0605 24.2764 25.859 24.1738C25.5566 23.8658 25.0528 23.7632 24.8514 24.0712ZM27.3705 25.3027C27.5719 24.9948 28.0757 24.9948 28.3781 25.2C28.6803 25.4053 29.3856 26.1236 29.1837 26.4316C28.9827 26.7395 27.9751 26.4316 27.7735 26.329C27.4712 26.0211 27.1689 25.6105 27.3705 25.3027ZM26.262 23.5581C26.3628 23.2501 26.5643 23.1475 26.7659 23.1475C26.5643 23.0449 26.3628 22.8396 26.4636 22.6344C26.4636 22.2239 26.9674 22.0187 27.3705 22.1213C27.6727 22.1213 28.6803 22.5318 28.5797 22.8396C28.5797 23.1475 27.9751 23.2501 27.5719 23.3527C27.7735 23.4555 27.9751 23.5581 28.1765 23.6607C28.2773 23.2501 28.7811 23.2501 29.0835 23.3527C29.3856 23.4555 30.2933 23.9686 30.1916 24.3791C30.0914 24.7895 28.9827 24.6869 28.7811 24.5843C28.5797 24.5843 28.4789 24.3791 28.2773 24.2764C27.9751 24.4817 27.1689 24.4817 26.9674 24.4817C26.6651 24.2764 26.1613 23.9686 26.262 23.5581ZM25.0528 21.6082C25.0528 22.0187 25.5566 22.2239 25.859 22.2239C26.1612 22.2239 27.1689 21.916 27.1689 21.6082C27.1689 21.1977 26.1612 20.9923 25.859 20.9923C25.5566 20.9923 25.0528 21.1977 25.0528 21.6082ZM28.1765 21.8134C28.1765 22.2239 28.5797 22.4291 28.9827 22.4291C29.2854 22.4291 30.2933 22.2239 30.2933 21.916C30.2933 21.6082 29.6877 21.4029 29.2854 21.3003C29.6877 21.1977 30.1916 21.0951 30.2933 20.7871C30.2933 20.3766 29.2854 20.0687 28.9827 20.0687C28.6803 20.0687 28.1765 20.274 28.1765 20.6846C28.1765 20.9923 28.4789 21.1977 28.7811 21.3003C28.4789 21.3003 28.2773 21.5055 28.1765 21.8134ZM26.1612 20.4792C26.0605 20.0687 26.4635 19.7609 26.8666 19.6582C27.1689 19.5556 28.1765 19.6583 28.2773 19.9661C28.3781 20.3766 27.3705 20.7871 27.0681 20.7871C26.7659 20.9923 26.262 20.8897 26.1612 20.4792ZM24.952 19.7609C25.2544 20.0687 25.6574 19.9661 25.9597 19.7609C26.1613 19.5556 26.8666 18.7347 26.5643 18.4268C26.3628 18.1188 25.3552 18.6319 25.1536 18.8373C24.952 19.0425 24.6498 19.453 24.952 19.7609ZM27.1689 19.2478C27.3705 19.6582 27.8743 19.5556 28.1765 19.3504C28.4789 19.2478 29.1837 18.5293 29.0835 18.1188C29.0835 18.0162 28.9827 18.0162 28.7811 18.0162C28.9827 17.811 29.0835 17.6057 29.0835 17.4005C28.8819 16.99 27.8743 17.2978 27.6727 17.4005C27.3705 17.5031 27.0681 17.9136 27.1689 18.3242C27.1689 18.4268 27.2697 18.5294 27.3705 18.5294C27.0681 18.7347 26.9674 18.9399 27.1689 19.2478ZM24.6498 18.4268C24.3476 18.2214 24.4482 17.7083 24.6498 17.4005C24.8514 17.1952 25.4558 16.5795 25.859 16.6821C25.7582 16.3743 25.9598 16.0664 26.262 15.861C26.4636 15.6558 27.4713 15.1427 27.6727 15.5532C27.8743 15.861 27.2697 16.6821 27.0681 16.8874C26.8666 17.0926 26.4636 17.1952 26.1612 16.99C26.1612 17.4005 25.859 18.0162 25.7582 18.1188C25.3552 18.4268 24.952 18.7347 24.6498 18.4268ZM25.4559 15.861C25.6574 15.5532 26.0605 14.6296 25.7582 14.4243C25.4559 14.2191 24.6498 14.9374 24.549 15.1427C24.4482 15.3479 24.3476 15.6558 24.4482 15.9638C24.3476 16.0664 24.2468 16.169 24.2468 16.2716C24.0452 16.5795 23.9444 17.0926 24.2468 17.2978C24.549 17.5031 25.0528 17.2978 25.2544 16.99C25.1536 16.7847 25.4559 16.2716 25.4559 15.861ZM22.6346 17.6057C22.5338 17.6057 22.433 17.5031 22.433 17.4005C22.2315 17.7083 21.9292 18.0162 21.6269 17.811C21.2238 17.7083 21.2238 17.0926 21.3245 16.7847C21.4253 16.4769 22.0299 15.6558 22.3322 15.7584C22.433 15.861 22.5338 16.0664 22.5338 16.2716C22.7353 15.9638 23.2392 15.4507 23.4406 15.5532C23.8436 15.7584 23.5414 16.7847 23.4406 16.99C23.3398 17.5031 23.0376 17.811 22.6346 17.6057ZM22.0299 15.5532C22.433 15.6558 22.7353 15.2453 22.836 14.9374C22.9368 14.6296 23.0376 13.6034 22.6346 13.5006C22.2315 13.398 21.7276 14.3217 21.6269 14.6296C21.6269 14.9374 21.7277 15.4507 22.0299 15.5532ZM20.9215 15.7584C21.3246 15.861 21.6269 15.3479 21.6269 15.0401C21.6269 14.7322 21.6269 13.706 21.2238 13.6034C20.8207 13.5006 20.4177 14.527 20.4177 14.8348C20.4177 15.1427 20.5185 15.6558 20.9215 15.7584ZM20.0147 14.6296H19.9139C19.9139 14.9374 19.8131 15.3479 19.5109 15.4507C19.1077 15.5532 18.8055 15.1427 18.7047 14.7322C18.6039 14.4243 18.6039 13.398 19.0071 13.2955C19.2085 13.2955 19.4101 13.5006 19.6115 13.8086C19.6115 13.5006 20.0147 12.4744 20.4177 12.577C20.8207 12.6797 20.8207 13.706 20.8207 14.0138C20.6193 14.2191 20.4177 14.6296 20.0147 14.6296ZM19.2085 17.6057C19.6115 17.5031 19.7123 16.99 19.6115 16.6821C19.5109 16.3743 19.1077 15.4507 18.7047 15.4507C18.7047 15.4507 18.7047 15.4507 18.6039 15.4507C18.5033 15.0401 18.2009 14.2191 17.8987 14.3217C17.7979 14.3217 17.7979 14.3217 17.6971 14.4243C17.5963 14.1165 17.0925 13.2955 16.6894 13.398C16.2864 13.5006 16.3872 14.6296 16.4879 14.8348C16.5886 15.1427 16.891 15.5532 17.294 15.4507C17.294 15.5532 17.294 15.6558 17.294 15.6558C17.294 15.9638 17.5963 16.4769 17.9994 16.4769C18.1001 16.4769 18.2009 16.4769 18.2009 16.3743C18.2009 16.5795 18.2009 16.7847 18.2009 16.8874C18.2009 16.99 18.2009 16.99 18.3017 17.0926C17.9993 16.7847 17.4955 16.2716 17.1933 16.3743C16.891 16.5795 17.1933 17.6057 17.3948 17.811C17.5963 18.1188 17.9993 18.4268 18.3017 18.2214C18.6039 18.0162 18.6039 17.6057 18.5033 17.2978C18.8055 17.6057 19.0071 17.7083 19.2085 17.6057ZM16.1856 15.9638C15.8834 16.169 15.3794 15.861 15.2788 15.5532C15.0772 15.2453 14.775 14.3217 15.0772 14.1165C15.3794 13.9112 16.0848 14.6296 16.2864 14.9374C16.4879 15.2453 16.4879 15.7584 16.1856 15.9638ZM16.4879 17.6057C16.1856 17.9136 15.6818 17.7083 15.4802 17.4005C15.4802 17.4005 15.4802 17.2978 15.3794 17.2978C15.3794 17.5031 15.3794 17.7083 15.2788 17.811C14.9764 18.1188 14.4726 17.9136 14.2712 17.7083C14.0696 17.5031 13.465 16.5795 13.7672 16.2716C14.0696 15.9638 14.8756 16.4769 15.0772 16.7847C14.9764 16.4769 14.8756 16.169 14.9764 15.9638C15.2788 15.6558 16.0848 16.2716 16.2864 16.4769C16.5887 16.7847 16.7902 17.2978 16.4879 17.6057ZM15.6818 19.2478C15.581 19.3504 15.4802 19.453 15.2788 19.453C15.6818 19.453 16.0848 19.6582 16.1856 19.7609C16.4879 19.9661 16.7902 20.3766 16.5886 20.6846C16.3872 20.9923 15.8834 20.9923 15.581 20.7871C15.6818 20.8897 15.6818 20.9923 15.6818 21.0951C15.6818 21.5055 15.178 21.7108 14.775 21.6082C14.6742 21.6082 14.2712 21.5055 14.0696 21.4029V21.5055C13.9688 21.916 13.465 21.916 13.062 21.8134C12.7596 21.7108 11.8527 21.1977 11.9535 20.7871C12.0543 20.3766 13.1627 20.4792 13.3642 20.5818C13.3642 20.5818 13.465 20.5818 13.5658 20.6846C13.7672 20.3766 14.6742 20.274 14.8756 20.274C14.9764 20.274 15.0772 20.274 15.178 20.3766C14.8756 20.0687 14.4726 19.6582 14.6742 19.3504C14.775 19.2478 14.8756 19.2478 14.9764 19.2478C14.8756 19.2478 14.6742 19.1451 14.5734 19.1451C14.3718 18.9399 13.5658 18.2214 13.7672 17.9136C13.9688 17.6057 14.9764 17.9136 15.178 18.1188C15.581 18.4268 15.8834 18.8373 15.6818 19.2478ZM14.6742 20.1714C14.775 19.7609 14.4726 19.453 14.0696 19.3504C13.7672 19.2478 12.7596 19.1451 12.6589 19.5556C12.5581 19.9661 13.465 20.4792 13.6666 20.5818C14.0696 20.5818 14.5734 20.5818 14.6742 20.1714ZM16.2864 22.6344C16.1856 22.9422 15.7826 23.0449 15.3794 23.0449C15.4802 23.1475 15.581 23.3527 15.581 23.5581C15.581 23.8658 15.2788 24.0712 14.9764 24.1738C15.2788 24.1738 15.6818 24.2764 15.6818 24.6869C15.7826 25.0974 15.3796 25.4053 14.9764 25.5079C14.8756 25.5079 14.5734 25.5079 14.2712 25.5079C14.4726 25.6105 14.775 25.7131 14.775 25.9185C14.8756 25.8159 14.8756 25.8159 14.9764 25.7131C15.2788 25.5079 15.7826 25.4053 15.984 25.7131C16.1856 26.021 15.984 26.5342 15.6818 26.7395C15.581 26.8421 15.2788 26.9447 14.9764 27.0473C14.9764 27.0473 15.0772 27.1499 15.0772 27.2526C15.2788 27.6631 14.8756 27.9709 14.5734 28.1763C14.2712 28.2788 13.2634 28.5868 13.1627 28.1763C12.9612 27.7657 13.868 27.1499 14.0696 27.0473H14.1704C14.1704 26.9447 14.1704 26.9447 14.1704 26.8421H14.0696C13.6666 26.8421 12.8604 26.8421 12.8604 26.329C12.7596 25.8159 13.5658 25.5079 13.9688 25.5079C14.0696 25.5079 14.0696 25.5079 14.1704 25.5079C13.868 25.4053 13.6666 25.3027 13.5658 25.2C13.465 24.7895 14.3718 24.3791 14.6742 24.3791H14.5734C14.1704 24.3791 13.465 24.0712 13.465 23.5581C13.465 23.1475 14.2712 22.9422 14.6742 22.9422C14.3718 22.737 13.9688 22.4291 14.0696 22.2239C14.1704 21.8134 15.2788 21.916 15.4802 22.0187C15.984 21.916 16.3872 22.2239 16.2864 22.6344ZM13.868 24.2764C13.868 23.8658 13.465 23.6607 13.062 23.6607C12.7596 23.6607 11.752 23.8658 11.752 24.1738C11.752 24.5843 12.7596 24.8922 13.062 24.8922C13.3642 24.8922 13.868 24.6869 13.868 24.2764ZM16.3872 27.5604C16.6894 27.8683 16.3872 28.3814 16.0848 28.5868C15.8834 28.792 14.8756 29.3051 14.6742 28.8946C14.4726 28.5868 15.0772 27.7657 15.2788 27.5604C15.6818 27.3552 16.1856 27.1499 16.3872 27.5604Z" fill="#000005"/>
<path fill-rule="evenodd" clip-rule="evenodd" d="M21.7272 17.7084C21.828 17.7084 22.0294 17.4006 22.0294 17.0927C22.1302 16.8875 22.231 16.0664 22.1302 16.0664C22.0294 16.0664 21.7272 16.8875 21.7272 17.0927C21.6264 17.2979 21.6264 17.7084 21.7272 17.7084ZM19.3088 17.4006C19.4095 17.4006 19.4095 16.9901 19.3088 16.6822C19.208 16.477 19.0065 15.6559 18.9057 15.7585C18.8049 15.7585 19.0065 16.5796 19.0065 16.8875C19.0065 17.0927 19.208 17.5032 19.3088 17.4006ZM18.0997 16.3744C18.2003 16.3744 18.3011 15.9639 18.3011 15.6559C18.3011 15.4507 18.2003 14.6297 18.0997 14.6297C17.9989 14.6297 17.9989 15.4507 17.9989 15.7585C17.9989 15.9639 17.9989 16.3744 18.0997 16.3744ZM18.4019 18.2215C18.5027 18.1189 18.3011 17.8111 18.2003 17.5032C18.0997 17.2979 17.5959 16.6822 17.4951 16.6822C17.3943 16.7848 17.7973 17.5032 17.8981 17.7084C18.0997 18.0163 18.3011 18.3242 18.4019 18.2215ZM15.0767 17.7084C15.1775 17.6058 14.8752 17.2979 14.6736 17.0927C14.4721 16.8875 13.8676 16.3744 13.8676 16.477C13.7668 16.5796 14.3714 17.1953 14.4721 17.4006C14.7744 17.5032 15.0767 17.8111 15.0767 17.7084ZM16.4875 20.5819C16.4875 20.4793 16.1851 20.2741 15.9836 20.0688C15.7821 19.9662 15.0767 19.6584 14.9759 19.761C14.9759 19.8636 15.5805 20.2741 15.7821 20.4793C16.0843 20.5819 16.3867 20.6846 16.4875 20.5819ZM15.5805 21.1978C15.5805 21.3003 15.1775 21.3003 14.9759 21.1978C14.7744 21.0952 13.9682 20.8898 13.9682 20.7872C13.9682 20.6846 14.7744 20.7872 14.9759 20.8898C15.1775 20.8898 15.5805 21.0952 15.5805 21.1978ZM15.379 23.4556C15.379 23.3528 14.9759 23.2502 14.6736 23.2502C14.4721 23.2502 13.666 23.3528 13.666 23.4556C13.666 23.5581 14.4721 23.6607 14.7744 23.5581C15.0767 23.6607 15.4797 23.5581 15.379 23.4556ZM15.4798 24.4818C15.4798 24.3792 15.0767 24.4818 14.7744 24.4818C14.5728 24.5844 13.7668 24.7896 13.8676 24.8923C13.8676 24.9949 14.6736 24.7896 14.9759 24.7896C15.1775 24.7896 15.5805 24.5844 15.4798 24.4818ZM17.7973 26.9448C17.6965 26.9448 17.4951 27.2527 17.2935 27.4579C17.1927 27.6632 16.8905 28.3815 16.9913 28.4841C17.0919 28.4841 17.4951 27.8684 17.6965 27.6632C17.6965 27.3553 17.8981 26.9448 17.7973 26.9448ZM18.8049 27.15C18.7041 27.15 18.5027 27.4579 18.5027 27.7658C18.4019 27.971 18.3011 28.792 18.4019 28.792C18.5027 28.792 18.8049 27.971 18.8049 27.7658C18.9057 27.5605 18.9057 27.15 18.8049 27.15ZM21.4248 29.3052C21.324 29.3052 21.2234 29.7157 21.2234 30.0236C21.2234 30.2288 21.324 31.0498 21.4248 31.0498C21.5256 31.0498 21.6264 30.2288 21.5256 29.9209C21.6264 29.6131 21.5256 29.3052 21.4248 29.3052ZM23.944 28.1763C23.8432 28.1763 23.944 28.5869 23.944 28.8946C24.0447 29.1 24.2462 29.9209 24.347 29.8183C24.4478 29.8183 24.2462 28.9972 24.2462 28.6894C24.2462 28.4841 24.0447 28.1763 23.944 28.1763ZM24.1454 26.8422C24.2462 26.7396 24.4478 27.0474 24.6493 27.2527C24.7501 27.4579 25.1531 28.1763 25.0523 28.2789C24.9516 28.3815 24.5485 27.6632 24.347 27.4579C24.2462 27.2527 24.0447 26.9448 24.1454 26.8422ZM24.9516 24.2765C24.9516 24.3792 25.2539 24.5844 25.4555 24.687C25.6569 24.7896 26.3623 25.0975 26.4631 24.9949C26.4631 24.8923 25.7577 24.4818 25.5562 24.3792C25.3547 24.2764 24.9516 24.1739 24.9516 24.2765ZM25.3547 21.6083C25.3547 21.7109 25.7577 21.8135 26.0601 21.8135C26.2615 21.8135 27.0677 21.7109 27.0677 21.6083C27.0677 21.5055 26.2615 21.4029 25.9593 21.4029C25.6569 21.4029 25.2539 21.5055 25.3547 21.6083ZM26.7653 22.7371C26.7653 22.8397 27.1683 22.9423 27.4707 22.9423C27.6723 22.9423 28.4783 22.8397 28.4783 22.7371C28.4783 22.6345 27.6721 22.6345 27.3699 22.6345C27.0677 22.5319 26.6645 22.5319 26.7653 22.7371ZM26.2615 20.4793C26.2615 20.5819 26.6645 20.4793 26.9669 20.4793C27.1683 20.3767 27.9745 20.1715 27.8737 20.0688C27.8737 19.9662 27.0677 20.1715 26.7653 20.1715C26.5639 20.1715 26.2615 20.3767 26.2615 20.4793ZM25.0523 19.5557C25.1531 19.6584 25.4555 19.4531 25.7577 19.3505C25.9593 19.2479 26.5639 18.7348 26.5639 18.632C26.4631 18.5294 25.7577 18.94 25.5562 19.0425C25.2539 19.2479 25.0523 19.4531 25.0523 19.5557ZM24.6493 16.0664C24.7501 16.0664 24.9516 15.7585 25.1531 15.5533C25.2539 15.348 25.5561 14.6297 25.4555 14.5271C25.3547 14.5271 24.9516 15.1428 24.7501 15.348C24.6493 15.6559 24.5485 16.0664 24.6493 16.0664Z" fill="#F37321"/>
</svg>
