<svg width="24" height="24" viewBox="0 0 24 24" fill="none" xmlns="http://www.w3.org/2000/svg">
<path d="M19.23 15.2602L16.69 14.9702C16.08 14.9002 15.48 15.1102 15.05 15.5402L13.21 17.3802C10.38 15.9402 8.06004 13.6302 6.62004 10.7902L8.47004 8.94025C8.90004 8.51025 9.11004 7.91025 9.04004 7.30025L8.75004 4.78025C8.63004 3.77025 7.78004 3.01025 6.76004 3.01025H5.03004C3.90004 3.01025 2.96004 3.95025 3.03004 5.08025C3.56004 13.6202 10.39 20.4402 18.92 20.9702C20.05 21.0402 20.99 20.1002 20.99 18.9702V17.2402C21 16.2302 20.24 15.3802 19.23 15.2602Z" fill="#8000FF"/>
</svg>
